    <svg 
        width="1440" 
        height="804" 
        viewBox="0 0 1440 804" 
        fill="none" 
        xmlns="http://www.w3.org/2000/svg">
        <path opacity="0.5"
            d="M1412.4 673.156L1432.37 653.612L1340.37 559.608L1340.16 579.365L1320.4 579.151L1412.4 673.156ZM1318.26 777.319L1338.02 777.532L1337.81 797.291L1431.81 705.294L1412.26 685.324L1318.26 777.319ZM1437.97 699.269L1457.94 679.741L1438.39 659.77L1418.42 679.314L1437.97 699.269ZM1463.54 725.398L1483.51 705.853L1463.96 685.882L1443.99 705.426L1463.54 725.398ZM1437.28 763.153L1436.85 802.669L1482.95 757.553L1463.41 737.582L1437.28 763.153ZM1509.08 731.982L1489.54 712.012L1469.56 731.555L1489.11 751.527L1509.08 731.982ZM1535.21 706.411L1515.66 686.441L1495.69 705.985L1515.24 725.957L1535.21 706.411ZM1561.34 680.858L1541.79 660.887L1521.82 680.431L1541.37 700.386L1561.34 680.858ZM1516.22 634.758L1496.25 654.302L1515.8 674.273L1535.77 654.729L1516.22 634.758ZM1490.65 608.628L1470.68 628.172L1490.23 648.143L1510.2 628.599L1490.65 608.628ZM1439.51 556.37L1439.08 595.885L1464.65 622.014L1484.63 602.47L1439.51 556.37ZM1470.12 679.873L1489.67 699.827L1509.64 680.299L1490.09 660.329L1470.12 679.873ZM1444.55 653.743L1464.1 673.714L1484.07 654.17L1464.52 634.199L1444.55 653.743Z"
            fill="#CDA62E" />
        <g opacity="0.5">
            <path d="M1435.96 195.068C1435.8 209.61 1423.88 221.273 1409.34 221.116L1343.56 220.406L1344.27 154.624C1344.43 140.08 1356.34 128.418 1370.89 128.575L1345.61 128.302C1331.07 128.145 1319.15 139.807 1318.99 154.351L1318.01 245.409L1409.07 246.393C1423.61 246.55 1435.53 234.888 1435.69 220.344" fill="#E8C67C" />
            <path d="M1370.97 121.222C1356.42 121.065 1344.76 109.147 1344.92 94.6034L1345.63 28.8226L1411.41 29.5332C1425.95 29.6903 1437.62 41.6082 1437.46 56.1521L1437.73 30.8745C1437.89 16.3306 1426.23 4.41396 1411.68 4.25685L1320.62 3.27319L1319.64 94.3303C1319.48 108.874 1331.15 120.792 1345.69 120.949L1370.97 121.222Z" fill="#E8C67C" />
            <path d="M1522.58 83.8615C1511.78 72.8222 1494.56 71.8711 1482.64 81.1235C1492.15 69.407 1491.57 52.1686 1480.76 41.1256L1441.79 1.30832L1401.97 40.2745C1390.93 51.0815 1389.98 68.3033 1399.23 80.2225C1387.52 70.7148 1370.28 71.2937 1359.24 82.097L1319.42 121.068L1358.39 160.889C1369.19 171.933 1386.41 172.885 1398.33 163.628C1388.82 175.345 1389.4 192.582 1400.21 203.626L1439.18 243.445L1479 204.477C1490.04 193.669 1490.99 176.449 1481.74 164.529C1493.45 174.041 1510.69 173.462 1521.73 162.654L1561.56 123.684L1522.58 83.8615ZM1488.81 146.332C1482.24 152.756 1471.99 153.1 1465.02 147.445C1470.52 154.533 1469.96 164.778 1463.39 171.205L1439.71 194.382L1416.53 170.698C1410.1 164.132 1409.76 153.876 1415.41 146.909C1408.33 152.413 1398.08 151.847 1391.65 145.282L1368.48 121.598L1392.16 98.4203C1398.73 91.9954 1408.98 91.6516 1415.95 97.3073C1410.45 90.2192 1411.01 79.9772 1417.58 73.5473L1441.26 50.3707L1464.44 74.0535C1470.87 80.6238 1471.21 90.8756 1465.56 97.8432C1472.64 92.3393 1482.89 92.9045 1489.31 99.4698L1512.49 123.154L1488.81 146.332Z" fill="#C89400" />
        </g>
        <g opacity="0.5">
            <path d="M1373.31 398.7C1359.26 398.548 1347.98 387.031 1348.14 372.974L1348.82 309.396L1412.4 310.083C1426.46 310.235 1437.73 321.752 1437.58 335.809L1437.84 311.379C1437.99 297.323 1426.72 285.804 1412.67 285.652L1324.66 284.702L1323.71 372.71C1323.55 386.767 1334.83 398.285 1348.88 398.436" fill="#E8C67C" />
            <path d="M1438.45 402.957L1425.97 390.211C1415.71 379.72 1398.88 379.538 1388.39 389.805L1375.64 402.279L1388.12 415.025C1398.38 425.516 1415.21 425.698 1425.7 415.431L1438.45 402.957Z" fill="#C89400" />
            <path d="M1452.87 417.692L1440.39 404.946L1427.65 417.42C1417.16 427.686 1416.97 444.513 1427.24 455.003L1439.71 467.75L1452.46 455.276C1462.95 445.009 1463.13 428.183 1452.87 417.692Z" fill="#C89400" />
            <path d="M1440.43 401.012L1453.18 388.538C1463.67 378.271 1463.85 361.445 1453.59 350.954L1441.11 338.208L1428.37 350.682C1417.88 360.948 1417.69 377.775 1427.96 388.265L1440.43 401.012Z" fill="#C89400" />
            <path d="M1436.13 470.071C1435.98 484.127 1424.46 495.399 1410.4 495.247L1346.82 494.561L1347.51 430.983C1347.66 416.926 1359.18 405.655 1373.24 405.806L1348.81 405.543C1334.75 405.391 1323.23 416.662 1323.08 430.719L1322.13 518.726L1410.14 519.677C1424.19 519.829 1435.71 508.557 1435.86 494.502L1436.13 470.071Z" fill="#E8C67C" />
        </g>
        <g opacity="0.5">
            <path d="M121.153 438.18C121.31 423.642 109.652 411.727 95.1119 411.57L69.8421 411.297C84.3821 411.454 96.0417 423.369 95.8846 437.907L95.1742 503.671L29.4107 502.96C14.8721 502.803 3.21249 490.889 3.36955 476.35L3.09657 501.62C2.93952 516.159 14.5991 528.073 29.1377 528.23L120.171 529.213L121.154 438.182L121.153 438.18Z" fill="#D9B372" />
            <path d="M4.9702 337.474C5.12725 322.936 17.0415 311.276 31.5801 311.433L97.3436 312.143L96.6332 377.906C96.4762 392.446 84.5619 404.105 70.022 403.948L95.2917 404.221C109.832 404.378 121.746 392.719 121.903 378.179L122.886 287.147L31.8531 286.163C17.3145 286.006 5.40023 297.666 5.24317 312.204" fill="#D9B372" />
            <path d="M51.095 425.175C51.1927 416.001 44.3602 408.369 35.4694 407.25C44.3837 406.324 51.3794 398.842 51.4786 389.666L51.8346 356.579L18.7491 356.221C9.57338 356.122 1.94172 362.955 0.821444 371.846C-0.10377 362.934 -7.58607 355.94 -16.7604 355.838L-49.8486 355.48L-50.2061 388.569C-50.3052 397.746 -43.4727 405.376 -34.5819 406.494C-43.4948 407.42 -50.4905 414.902 -50.5897 424.08L-50.9471 457.164L-17.8616 457.522C-8.68448 457.622 -1.05282 450.789 0.0647155 441.897C0.991276 450.811 8.47218 457.807 17.6493 457.906L50.7375 458.264L51.095 425.175ZM10.6769 437.224C5.22048 437.165 0.770651 433.003 0.220804 427.703C-0.444796 432.99 -4.98488 437.056 -10.4427 436.995L-30.1211 436.783L-29.9071 417.106C-29.8496 411.648 -25.6867 407.197 -20.3861 406.647C-25.6735 405.981 -29.7379 401.443 -29.6804 395.986L-29.4664 376.309L-9.78938 376.519C-4.3316 376.581 0.118247 380.741 0.668094 386.041C1.33369 380.754 5.87237 376.691 11.3316 376.75L31.0086 376.96L30.796 396.64C30.7371 402.099 26.5755 406.547 21.275 407.098C26.5624 407.764 30.6268 412.301 30.5679 417.758L30.3553 437.436L10.6769 437.224Z" fill="#C89400" />
        </g>
        <g opacity="0.5">
            <mask id="mask0_112_2652" style="mask-type:luminance" maskUnits="userSpaceOnUse" x="82" y="2" width="45" height="44">
                <path d="M83.3362 2.23242L126.509 2.6988L126.042 45.9663L82.8688 45.4999L83.3362 2.23242Z" fill="white" />
            </mask>
            <g mask="url(#mask0_112_2652)">
                <path d="M126.505 3.00633L126.507 2.74048C102.804 2.48443 83.3812 21.492 83.1251 45.1955L83.1222 45.4614C106.824 45.7174 126.248 26.7098 126.505 3.00633Z" fill="#C89400" />
            </g>
            <mask id="mask1_112_2652" style="mask-type:luminance" maskUnits="userSpaceOnUse" x="80" y="208" width="45" height="45">
                <path d="M81.1011 208.978L124.274 209.444L123.807 252.715L80.6336 252.248L81.1011 208.978Z" fill="white" />
            </mask>
            <g mask="url(#mask1_112_2652)">
                <path d="M81.3551 209.016L81.3522 209.282C81.0962 232.986 100.104 252.408 123.807 252.664L123.81 252.399C124.066 228.695 105.057 209.272 81.3551 209.016Z" fill="#C89400" />
            </g>
            <mask id="mask2_112_2652" style="mask-type:luminance" maskUnits="userSpaceOnUse" x="37" y="73" width="89" height="108">
                <path d="M38.2657 73.8284L125.729 74.7732L124.589 180.277L37.126 179.332L38.2657 73.8284Z" fill="white" />
            </mask>
            <g mask="url(#mask2_112_2652)">
                <path d="M38.3047 92.7644C45.887 85.3428 58.0496 85.4742 65.4712 93.0579L99.034 127.354L64.7382 160.918C57.1545 168.339 44.9919 168.208 37.5717 160.624L50.4683 173.804C57.8885 181.386 70.0511 181.518 77.6348 174.098L125.11 127.635L78.6496 80.1598C71.2294 72.5776 59.0667 72.4462 51.4831 79.8664L38.3047 92.7644Z" fill="#E8C67C" />
            </g>
            <path d="M46.3417 204.72C53.9239 197.3 54.0553 185.138 46.6351 177.555L33.7385 164.376C41.1587 171.959 41.0273 184.122 33.445 191.542L-0.852203 225.106L-34.4164 190.809C-41.838 183.227 -41.7066 171.064 -34.1229 163.643L-47.3026 176.541C-54.8849 183.961 -55.0163 196.123 -47.5961 203.706L-1.13389 251.183L46.3417 204.72Z" fill="#E8C67C" />
            <path d="M-33.308 88.1985C-40.7282 80.6148 -40.5968 68.4522 -33.0145 61.032L1.28272 27.4678L34.8469 61.765C42.2671 69.3473 42.1357 81.5099 34.5534 88.9315L47.7318 76.0335C55.314 68.6133 55.4454 56.4506 48.0252 48.867L1.56441 1.3914L-45.9112 47.8522C-53.4948 55.2738 -53.6262 67.4364 -46.2046 75.0187" fill="#E8C67C" />
            <path d="M3.99299 126.361L13.5754 136.152C20.094 142.813 30.7783 142.929 37.4393 136.41L47.2978 126.762L37.7154 116.971C31.1968 110.31 20.5125 110.194 13.8515 116.713L3.99299 126.361Z" fill="#C89400" />
            <path d="M9.78853 139.924L0.140735 130.066L-9.65094 139.647C-16.3119 146.165 -16.4273 156.85 -9.90873 163.511L-0.260948 173.371L9.53074 163.788C16.1917 157.27 16.3071 146.585 9.78853 139.924Z" fill="#C89400" />
            <path d="M0.289728 122.509L10.08 112.928C16.741 106.409 16.8564 95.7251 10.3378 89.0641L0.689989 79.2056L-9.10028 88.7866C-15.7612 95.3052 -15.8767 105.99 -9.35807 112.651L0.289728 122.509Z" fill="#C89400" />
        </g>
        <g opacity="0.5">
            <path d="M31.8876 559.598C17.267 559.44 5.2875 571.164 5.12956 585.784L4.85508 611.194C5.01301 596.573 16.9925 584.85 31.6131 585.008L97.7421 585.722L97.0277 651.85C96.8698 666.47 84.889 678.195 70.2684 678.037L95.6793 678.312C110.299 678.469 122.279 666.745 122.437 652.124L123.426 560.587L31.8876 559.598Z" fill="#E8C67C" />
            <path d="M70.1884 685.427C84.8089 685.585 96.5337 697.565 96.3757 712.185L95.6614 778.314L29.5324 777.6C14.9118 777.442 3.18839 765.461 3.34631 750.842L3.07182 776.251C2.91389 790.872 14.6373 802.853 29.2579 803.011L120.796 804L121.785 712.461C121.943 697.84 110.219 685.86 95.5993 685.702L70.1884 685.427Z" fill="#E8C67C" />
            <path d="M83.0379 638.97C72.1727 627.873 54.8613 626.917 42.8792 636.218C52.4408 624.439 51.8589 607.11 40.9937 596.009L1.81822 555.982L-38.209 595.153C-49.3115 606.017 -50.2676 623.33 -40.9665 635.312C-52.7411 625.754 -70.0691 626.336 -81.1715 637.196L-121.203 676.373L-82.0271 716.404C-71.162 727.507 -53.8506 728.463 -41.8722 719.158C-51.4301 730.936 -50.8481 748.264 -39.9829 759.367L-0.81125 799.395L39.2198 760.222C50.3222 749.357 51.2784 732.046 41.9734 720.063C53.7518 729.625 71.0798 729.043 82.1822 718.178L122.215 679.003L83.0379 638.97ZM49.0808 701.77C42.4796 708.229 32.1738 708.574 25.1706 702.889C30.7023 710.014 30.1353 720.314 23.5304 726.774L-0.278459 750.074L-23.5735 726.265C-30.0373 719.664 -30.3829 709.354 -24.6973 702.35C-31.8229 707.883 -42.1188 707.315 -48.5827 700.715L-71.8777 676.906L-48.0738 653.606C-41.4689 647.147 -31.163 646.801 -24.1587 652.487C-29.6916 645.361 -29.1234 635.065 -22.5184 628.602L1.28543 605.303L24.5854 629.11C31.0492 635.715 31.3936 646.021 25.7093 653.026C32.8336 647.493 43.1296 648.061 49.5897 654.661L72.8897 678.47L49.0808 701.77Z" fill="#C89400" />
        </g>
    </svg>