<svg width="246" height="246" viewBox="0 0 246 246" fill="none" xmlns="http://www.w3.org/2000/svg">
<path d="M239.627 1.29673L242.058 7.89517e-06C244.65 4.75467 245.298 10.698 237.845 20.3154C236.441 23.125 242.058 31.7698 242.058 31.7698L240.005 33.4447C234.551 28.4739 231.526 30.0408 231.148 23.9354C230.954 25.6063 230.997 26.6227 231.148 28.4739C228.761 28.7281 227.542 29.1188 225.531 30.1489C220.941 19.4509 224.991 12.9673 238.493 6.96991C240.923 5.94334 239.627 1.29673 239.627 1.29673Z" fill="url(#paint0_linear_97_2153)"/>
<path d="M218.079 22.1524L219.537 24.6378C216.934 27.0141 215.702 29.6628 216.35 34.6334C225.315 64.5663 212.84 69.2129 202.687 71.1579C209.295 54.0732 212.137 43.7738 215.054 23.6112L218.079 22.1524Z" fill="url(#paint1_linear_97_2153)"/>
<path d="M226.45 41.6573C225.531 42.576 228.772 46.6821 228.772 46.6821C220.509 43.3865 220.779 40.7386 220.779 38.1994C220.779 35.6601 222.777 30.1489 230.068 30.1489C237.359 30.1489 243.354 36.4904 243.354 44.3048C243.354 60.1357 228.07 72.4006 205.657 74.0215L205.657 71.1579C210.896 70.2935 217.647 66.7276 219.969 57.5424C236.063 49.7622 229.366 39.9728 226.45 41.6573Z" fill="url(#paint2_linear_97_2153)"/>
<path d="M225.478 69.9694C230.413 67.0606 233.934 66.5273 237.899 61.0003C242.382 62.8916 244.272 66.9437 246 70.0232C242.328 75.5345 237.359 77.6418 234.443 78.182C231.472 74.3458 227.638 71.3203 225.478 69.9694Z" fill="url(#paint3_linear_97_2153)"/>
<path d="M210.194 74.2918C214.635 74.0472 220.293 72.6169 224.721 70.2395C226.72 72.0227 242.166 83.0447 242.166 104.386C242.166 125.728 222.399 140.317 207.223 140.317C192.047 140.317 182.38 126.485 182.38 118.164C182.38 109.844 189.671 103.576 193.776 103.144C197.88 102.712 202.633 104.711 203.335 108.547C204.037 112.383 200.418 114.004 200.418 114.004C200.418 114.004 196.908 115.463 196.908 117.948C196.908 121.298 200.688 127.35 207.277 127.35C214.946 127.35 228.88 120.109 228.88 107.737C228.88 87.7453 208.898 77.3175 208.898 77.3175L210.194 74.2918Z" fill="url(#paint4_linear_97_2153)"/>
<path d="M186.215 103.9L186.863 104.549C186.863 104.549 191.669 101.793 196.098 101.793C200.526 101.793 204.847 105.251 204.847 109.411C204.847 113.572 200.364 116.219 200.364 116.219C203.335 123.189 212.408 124.702 217.593 116.111C217.593 116.111 216.35 106.656 209.762 106.656C219.375 97.957 214.406 87.6373 214.406 87.6373C214.406 87.6373 203.011 88.5558 199.014 95.0934C198.582 91.0952 195.504 87.3131 195.504 87.3131C191.893 94.3569 189.865 98.1846 186.215 103.9Z" fill="url(#paint5_linear_97_2153)"/>
<path d="M238.709 158.309C238.709 158.309 254.371 144.153 237.305 128.268C244.218 151.879 214.028 146.692 212.516 173.437C212.354 177.976 213.488 179.435 215.702 181.812C216.296 179.651 217.755 177.544 220.293 176.841C220.105 177.85 220.941 178.408 221.265 178.624C221.589 178.84 224.883 180.299 224.883 180.299C224.883 180.299 222.237 177.111 222.237 172.087C222.237 167.062 226.72 164.901 229.798 164.901C232.876 164.901 233.2 167.764 233.2 167.764C233.2 167.764 232.498 166.305 230.23 166.305C227.962 166.305 225.64 167.764 225.64 170.952C225.64 174.14 228.61 177.436 233.2 177.436C237.791 177.436 244.488 172.951 244.488 166.413C244.488 159.876 238.709 158.309 238.709 158.309Z" fill="url(#paint6_linear_97_2153)"/>
<path d="M1.29652 239.624L-4.85753e-06 242.056C4.75399 244.649 10.6965 245.298 20.3125 237.841C23.1217 236.437 31.7653 242.056 31.7653 242.056L33.44 240.003C28.4699 234.546 30.0366 231.52 23.932 231.142C25.6027 230.948 26.6189 230.991 28.4699 231.142C28.724 228.753 29.1146 227.534 30.1446 225.522C19.4481 220.93 12.9654 224.982 6.9689 238.49C5.94247 240.921 1.29652 239.624 1.29652 239.624Z" fill="url(#paint7_linear_97_2153)"/>
<path d="M22.1492 218.066L24.6343 219.525C27.0102 216.921 29.6586 215.689 34.6285 216.337C64.5572 225.306 69.2031 212.825 71.1477 202.668C54.0655 209.279 43.7675 212.122 23.6079 215.041L22.1492 218.066Z" fill="url(#paint8_linear_97_2153)"/>
<path d="M41.6514 226.441C42.57 225.522 46.6755 228.764 46.6755 228.764C43.3803 220.498 40.7329 220.768 38.194 220.768C35.6551 220.768 30.1446 222.767 30.1446 230.061C30.1446 237.355 36.4852 243.352 44.2985 243.352C60.1271 243.353 72.3903 228.062 74.011 205.639L71.1477 205.639C70.2836 210.88 66.7181 217.634 57.5342 219.957C49.7551 236.058 39.9671 229.359 41.6514 226.441Z" fill="url(#paint9_linear_97_2153)"/>
<path d="M69.9594 225.469C67.051 230.406 66.5179 233.929 60.9917 237.895C62.8826 242.38 66.9342 244.271 70.0133 246C75.5238 242.326 77.6308 237.355 78.1709 234.438C74.3353 231.466 71.3102 227.63 69.9594 225.469Z" fill="url(#paint10_linear_97_2153)"/>
<path d="M74.2812 210.178C74.0367 214.621 72.6065 220.282 70.2295 224.712C72.0124 226.711 83.0329 242.164 104.372 242.164C125.71 242.164 140.297 222.389 140.297 207.206C140.297 192.024 126.467 182.352 118.147 182.352C109.828 182.352 103.562 189.646 103.129 193.753C102.697 197.859 104.696 202.614 108.531 203.316C112.367 204.018 113.988 200.398 113.988 200.398C113.988 200.398 115.446 196.886 117.931 196.886C121.281 196.886 127.331 200.669 127.331 207.26C127.331 214.933 120.092 228.872 107.721 228.872C87.7329 228.872 77.3065 208.881 77.3065 208.881L74.2812 210.178Z" fill="url(#paint11_linear_97_2153)"/>
<path d="M103.886 186.188L104.534 186.837C104.534 186.837 101.779 191.646 101.779 196.076C101.779 200.506 105.236 204.829 109.396 204.829C113.556 204.829 116.203 200.344 116.203 200.344C123.172 203.316 124.684 212.393 116.095 217.58C116.095 217.58 106.641 216.337 106.641 209.746C97.9431 219.363 87.6248 214.392 87.6248 214.392C87.6248 214.392 88.5432 202.992 95.0799 198.994C91.0823 198.561 87.3007 195.482 87.3007 195.482C94.3435 191.87 98.1707 189.841 103.886 186.188Z" fill="url(#paint12_linear_97_2153)"/>
<path d="M158.286 238.706C158.286 238.706 144.132 254.375 128.25 237.301C151.858 244.217 146.672 214.014 173.413 212.501C177.951 212.339 179.409 213.474 181.786 215.689C178.816 217.202 177.518 217.742 176.816 220.282C177.824 220.094 179.194 220.606 181.084 224.604C181.084 224.604 177.086 222.227 172.062 222.227C167.038 222.227 164.877 226.711 164.877 229.791C164.877 232.871 167.74 233.195 167.74 233.195C167.74 233.195 166.282 232.492 166.282 230.223C166.282 227.954 167.74 225.631 170.928 225.631C174.115 225.631 177.41 228.602 177.41 233.195C177.41 237.787 172.926 244.487 166.39 244.487C159.853 244.487 158.286 238.706 158.286 238.706Z" fill="url(#paint13_linear_97_2153)"/>
<path d="M183.73 183.811C186.377 185.486 193.884 180.461 199.716 180.515C191.129 171.114 191.939 166.251 191.939 164.414C191.939 162.577 193.128 159.335 195.018 159.335C196.908 159.335 194.37 162.793 198.744 162.793C200.364 162.793 205.063 160.632 205.063 154.797C205.063 148.313 197.016 145.234 193.56 145.234C190.103 145.234 186.593 147.557 186.593 147.557C183.676 142.64 177.682 144.693 172.497 141.938C173.685 144.477 172.659 144.909 173.685 146.908C169.149 142.64 165.584 145.882 161.696 140.857C162.906 144.951 161.804 146.314 162.398 148.908C154.405 144.315 153.865 149.448 144.036 143.126C148.896 153.446 145.224 155.769 149.382 161.875C144.036 160.524 145.008 162.415 141.281 161.335C144.738 162.901 142.955 168.034 147.384 173.383C145.602 172.519 144.738 172.843 142.037 172.141C145.116 175.977 142.631 183.001 148.032 186.351C148.032 186.351 145.656 189.214 145.656 193.429C145.656 198.724 150.408 204.883 155.215 204.883C157.429 204.883 163.37 202.398 163.37 198.724C163.37 194.509 159.806 196.076 159.806 194.509C159.806 192.942 162.992 191.537 164.72 191.537C166.448 191.537 175.035 192.942 181.138 199.588C179.842 196.4 185.027 187.215 183.73 183.811Z" fill="url(#paint14_linear_97_2153)"/>
<path d="M232.12 232.276L230.986 211.205C217.539 206.126 218.781 215.095 210.68 210.502C215.378 218.174 207.061 215.689 211.652 230.763L232.12 232.276Z" fill="url(#paint15_linear_97_2153)"/>
<path d="M230.338 200.993L230.986 209.854C217.107 205.856 217.431 214.879 208.952 208.881C215.594 218.499 205.927 215.095 210.68 230.601L201.391 230.061C197.016 207.422 204.253 207.098 202.417 202.073C206.953 203.91 206.521 196.832 230.338 200.993Z" fill="url(#paint16_linear_97_2153)"/>
<path d="M204.253 201.965C213.11 197.427 222.129 199.102 230.176 200.074C231.202 193.158 232.336 184.297 221.049 179.165C219.915 178.509 220.023 177.382 220.023 177.382C217.539 177.976 215.864 182.514 215.864 182.514C215.864 182.514 209.492 177.382 200.527 179.597C200.527 179.597 202.741 181.002 202.147 182.785C196.908 179.219 189.617 185.378 184.541 184.784C184.811 188.836 181.57 195.59 182.11 197.481C182.218 200.369 182.577 200.763 183.082 202.019C182.348 202.274 181.66 201.827 180.112 200.344C178.384 205.153 178.492 208.827 182.92 215.689C179.842 216.878 177.898 218.012 177.358 219.903C181.516 219.633 180.868 232.817 200.472 230.061C199.608 225.036 197.61 214.933 202.093 204.829C202.579 202.83 201.769 201.911 200.959 200.344C202.363 201.263 203.011 202.29 204.253 201.965Z" fill="url(#paint17_linear_97_2153)"/>
<defs>
<linearGradient id="paint0_linear_97_2153" x1="237.392" y1="23.2506" x2="5.21723" y2="232.623" gradientUnits="userSpaceOnUse">
<stop stopColor="#B8A25F"/>
<stop offset="0.5" stopColor="#FFF1D3"/>
<stop offset="1" stopColor="#B8A25F"/>
</linearGradient>
<linearGradient id="paint1_linear_97_2153" x1="237.392" y1="23.2506" x2="5.21723" y2="232.623" gradientUnits="userSpaceOnUse">
<stop stopColor="#B8A25F"/>
<stop offset="0.5" stopColor="#FFF1D3"/>
<stop offset="1" stopColor="#B8A25F"/>
</linearGradient>
<linearGradient id="paint2_linear_97_2153" x1="237.392" y1="23.2506" x2="5.21723" y2="232.623" gradientUnits="userSpaceOnUse">
<stop stopColor="#B8A25F"/>
<stop offset="0.5" stopColor="#FFF1D3"/>
<stop offset="1" stopColor="#B8A25F"/>
</linearGradient>
<linearGradient id="paint3_linear_97_2153" x1="237.392" y1="23.2506" x2="5.21723" y2="232.623" gradientUnits="userSpaceOnUse">
<stop stopColor="#B8A25F"/>
<stop offset="0.5" stopColor="#FFF1D3"/>
<stop offset="1" stopColor="#B8A25F"/>
</linearGradient>
<linearGradient id="paint4_linear_97_2153" x1="237.392" y1="23.2506" x2="5.21723" y2="232.623" gradientUnits="userSpaceOnUse">
<stop stopColor="#B8A25F"/>
<stop offset="0.5" stopColor="#FFF1D3"/>
<stop offset="1" stopColor="#B8A25F"/>
</linearGradient>
<linearGradient id="paint5_linear_97_2153" x1="237.392" y1="23.2506" x2="5.21723" y2="232.623" gradientUnits="userSpaceOnUse">
<stop stopColor="#B8A25F"/>
<stop offset="0.5" stopColor="#FFF1D3"/>
<stop offset="1" stopColor="#B8A25F"/>
</linearGradient>
<linearGradient id="paint6_linear_97_2153" x1="237.392" y1="23.2506" x2="5.21723" y2="232.623" gradientUnits="userSpaceOnUse">
<stop stopColor="#B8A25F"/>
<stop offset="0.5" stopColor="#FFF1D3"/>
<stop offset="1" stopColor="#B8A25F"/>
</linearGradient>
<linearGradient id="paint7_linear_97_2153" x1="237.392" y1="23.2506" x2="5.21723" y2="232.623" gradientUnits="userSpaceOnUse">
<stop stopColor="#B8A25F"/>
<stop offset="0.5" stopColor="#FFF1D3"/>
<stop offset="1" stopColor="#B8A25F"/>
</linearGradient>
<linearGradient id="paint8_linear_97_2153" x1="237.392" y1="23.2506" x2="5.21723" y2="232.623" gradientUnits="userSpaceOnUse">
<stop stopColor="#B8A25F"/>
<stop offset="0.5" stopColor="#FFF1D3"/>
<stop offset="1" stopColor="#B8A25F"/>
</linearGradient>
<linearGradient id="paint9_linear_97_2153" x1="237.392" y1="23.2506" x2="5.21723" y2="232.623" gradientUnits="userSpaceOnUse">
<stop stopColor="#B8A25F"/>
<stop offset="0.5" stopColor="#FFF1D3"/>
<stop offset="1" stopColor="#B8A25F"/>
</linearGradient>
<linearGradient id="paint10_linear_97_2153" x1="237.392" y1="23.2506" x2="5.21723" y2="232.623" gradientUnits="userSpaceOnUse">
<stop stopColor="#B8A25F"/>
<stop offset="0.5" stopColor="#FFF1D3"/>
<stop offset="1" stopColor="#B8A25F"/>
</linearGradient>
<linearGradient id="paint11_linear_97_2153" x1="237.392" y1="23.2506" x2="5.21723" y2="232.623" gradientUnits="userSpaceOnUse">
<stop stopColor="#B8A25F"/>
<stop offset="0.5" stopColor="#FFF1D3"/>
<stop offset="1" stopColor="#B8A25F"/>
</linearGradient>
<linearGradient id="paint12_linear_97_2153" x1="237.392" y1="23.2506" x2="5.21723" y2="232.623" gradientUnits="userSpaceOnUse">
<stop stopColor="#B8A25F"/>
<stop offset="0.5" stopColor="#FFF1D3"/>
<stop offset="1" stopColor="#B8A25F"/>
</linearGradient>
<linearGradient id="paint13_linear_97_2153" x1="237.392" y1="23.2506" x2="5.21723" y2="232.623" gradientUnits="userSpaceOnUse">
<stop stopColor="#B8A25F"/>
<stop offset="0.5" stopColor="#FFF1D3"/>
<stop offset="1" stopColor="#B8A25F"/>
</linearGradient>
<linearGradient id="paint14_linear_97_2153" x1="237.392" y1="23.2506" x2="5.21723" y2="232.623" gradientUnits="userSpaceOnUse">
<stop stopColor="#B8A25F"/>
<stop offset="0.5" stopColor="#FFF1D3"/>
<stop offset="1" stopColor="#B8A25F"/>
</linearGradient>
<linearGradient id="paint15_linear_97_2153" x1="237.392" y1="23.2506" x2="5.21723" y2="232.623" gradientUnits="userSpaceOnUse">
<stop stopColor="#B8A25F"/>
<stop offset="0.5" stopColor="#FFF1D3"/>
<stop offset="1" stopColor="#B8A25F"/>
</linearGradient>
<linearGradient id="paint16_linear_97_2153" x1="237.392" y1="23.2506" x2="5.21723" y2="232.623" gradientUnits="userSpaceOnUse">
<stop stopColor="#B8A25F"/>
<stop offset="0.5" stopColor="#FFF1D3"/>
<stop offset="1" stopColor="#B8A25F"/>
</linearGradient>
<linearGradient id="paint17_linear_97_2153" x1="237.392" y1="23.2506" x2="5.21723" y2="232.623" gradientUnits="userSpaceOnUse">
<stop stopColor="#B8A25F"/>
<stop offset="0.5" stopColor="#FFF1D3"/>
<stop offset="1" stopColor="#B8A25F"/>
</linearGradient>
</defs>
</svg>
