<svg width="3738" height="309" viewBox="0 0 3738 309" fill="none" xmlns="http://www.w3.org/2000/svg">
<path d="M1870.83 0.502068C1871.73 2.89229 1873.48 5.14753 1875.82 7.42349C1878.15 9.69903 1881.06 11.9829 1884.28 14.4345C1890.7 19.3328 1898.34 24.8907 1904.94 32.3406C1911.55 39.7948 1917.12 49.1467 1919.44 61.6392C1921.75 74.0506 1920.83 89.547 1914.54 109.344C1933.11 103.357 1947.98 102.444 1960.13 104.662C1972.36 106.896 1981.82 112.3 1989.51 118.869C1997.21 125.434 2003.14 133.164 2008.32 140.045C2010.91 143.488 2013.31 146.716 2015.65 149.486C2017.99 152.257 2020.27 154.559 2022.6 156.156L2022.91 156.367L2022.56 156.513C2020.04 157.572 2017.68 159.441 2015.32 161.864C2012.96 164.287 2010.61 167.253 2008.12 170.497C2003.14 176.98 1997.58 184.565 1990.21 191.041C1982.83 197.521 1973.63 202.894 1961.36 204.964C1949.18 207.021 1933.97 205.814 1914.54 199.215C1920.53 219.007 1921.55 234.336 1919.47 246.549C1917.38 258.842 1912.16 267.964 1905.76 275.292C1899.36 282.616 1891.78 288.148 1884.97 293.258C1878.15 298.378 1872.12 303.061 1868.77 308.699L1868.59 309L1868.41 308.697C1865.11 302.955 1859.32 298.194 1852.8 293.025C1846.29 287.863 1839.06 282.305 1832.93 274.982C1826.79 267.654 1821.76 258.559 1819.64 246.319C1817.53 234.151 1818.29 218.886 1823.69 199.176C1781.73 209.505 1761.87 203.224 1748.94 191.654C1742.48 185.865 1737.75 178.762 1732.87 171.814C1727.99 164.859 1722.94 158.053 1715.81 152.805L1715.57 152.634L1715.81 152.472C1722.28 148.038 1727.73 141.715 1733.42 135.056C1739.11 128.404 1745.05 121.423 1752.49 115.715C1759.93 110.004 1768.88 105.568 1780.59 103.999C1792.23 102.441 1806.58 103.711 1824.89 109.35C1818.5 89.3976 1817.62 73.8727 1820.05 61.4933C1822.49 49.0346 1828.27 39.7785 1835.11 32.4142C1841.94 25.0543 1849.83 19.5792 1856.48 14.6911C1859.81 12.2447 1862.82 9.94767 1865.25 7.63215C1867.67 5.31635 1869.49 2.99375 1870.45 0.501268L1870.64 0L1870.83 0.502068ZM1870.02 37.0047C1862.69 63.6432 1861.68 78.5371 1865.52 104.749L1858.77 109.661C1845.42 92.1881 1841.47 81.5154 1840.96 60.9505C1838.17 81.8639 1840.85 93.4664 1854.06 113.959C1849.16 119.46 1847.16 123.422 1847.1 134.63C1837.57 134.233 1834.25 136.438 1828.48 140.565C1810.51 126.412 1798.77 123.98 1775.89 126.034C1798.68 127.808 1809.81 131.512 1825.82 144.454C1821.88 147.047 1820.52 148.981 1818.86 152.845C1792.39 147.409 1777.71 147.207 1751.94 153.664C1776.98 161.511 1791.76 161.545 1818.86 157.348C1820.04 161.438 1821.53 163.083 1824.8 165.534C1811.19 176.932 1800.76 180.782 1777.93 183.749C1804.86 184.412 1815.35 180.828 1828.48 169.627C1833.85 175.42 1839.51 176.111 1850.17 176.791C1849.14 183.593 1850.19 187.316 1855.49 193.778C1840.21 214.19 1839.44 226.657 1840.76 249.242C1842.11 226.308 1844.86 214.428 1860 198.28L1867.98 205.239C1860.79 234.737 1863.89 247.928 1868.8 271.755C1874.21 246.97 1877.12 233.037 1872.68 205.239L1881.07 198.28C1893.02 216.878 1896.42 228.126 1898.26 249.242C1899.32 224.485 1896.41 212.456 1884.55 193.778C1890.29 188.221 1892.02 184.152 1891.72 174.744C1901.05 175.806 1903.95 173.18 1908.91 168.195C1929.86 185.46 1941.82 184.479 1963.14 183.749C1945.94 182.496 1935.76 180.337 1913 164.306C1916.5 161.413 1917.96 159.62 1919.55 156.12C1951.1 163.326 1963.67 160.153 1986.67 155.301C1960.57 149.616 1945.9 147.327 1919.55 151.003C1917.94 147.1 1916.64 145.309 1913.41 143.021C1932.1 129.497 1942.81 128.171 1961.91 126.034C1944.14 126.095 1935.95 122.911 1909.93 139.337C1903.4 133.828 1899.03 131.897 1888.85 132.378C1889.6 124.491 1887.4 120.648 1882.71 113.959C1897.03 96.9824 1900.26 85.4539 1898.67 61.7691C1895.94 82.8857 1891.93 93.6766 1879.03 110.479L1871.25 104.749C1876.86 77.4476 1876.36 62.6412 1870.02 37.0047ZM3738 155.301V155.71L2034.15 177.814L2034.07 177.418L2092.5 155.505L2032.64 132.979L2032.72 132.583L3738 155.301ZM1705.77 132.569L1646.93 155.5L1703.92 176.394L1703.85 176.791L0.000399692 155.301L0 154.892L1705.69 132.174L1705.77 132.569Z" fill="url(#paint0_linear_93_737)"/>
<path d="M1857.74 137.7C1857.74 145.886 1863.07 152.64 1869.61 152.64C1876.16 152.64 1881.28 145.477 1881.28 137.7C1881.28 129.922 1869.61 118.666 1869.61 118.666C1869.61 118.666 1857.74 129.513 1857.74 137.7Z" fill="url(#paint1_linear_93_737)"/>
<path d="M1891.51 142.816C1883.32 142.816 1876.57 148.138 1876.57 154.687C1876.57 161.236 1883.73 166.353 1891.51 166.353C1899.29 166.353 1910.54 154.687 1910.54 154.687C1910.54 154.687 1899.7 142.816 1891.51 142.816Z" fill="url(#paint2_linear_93_737)"/>
<path d="M1881.28 172.493C1881.28 164.306 1875.96 157.552 1869.41 157.552C1862.86 157.552 1857.74 164.715 1857.74 172.493C1857.74 180.27 1869.41 191.527 1869.41 191.527C1869.41 191.527 1881.28 180.679 1881.28 172.493Z" fill="url(#paint3_linear_93_737)"/>
<path d="M1847.31 166.762C1855.49 166.762 1862.25 161.441 1862.25 154.892C1862.25 148.342 1855.08 143.226 1847.31 143.226C1839.53 143.226 1828.28 154.892 1828.28 154.892C1828.28 154.892 1839.12 166.762 1847.31 166.762Z" fill="url(#paint4_linear_93_737)"/>
<defs>
<linearGradient id="paint0_linear_93_737" x1="0" y1="154.5" x2="3738" y2="154.5" gradientUnits="userSpaceOnUse">
<stop stopColor="#B8A25F"/>
<stop offset="0.5" stopColor="#FFF1D3"/>
<stop offset="1" stopColor="#B8A25F"/>
</linearGradient>
<linearGradient id="paint1_linear_93_737" x1="0" y1="154.5" x2="3738" y2="154.5" gradientUnits="userSpaceOnUse">
<stop stopColor="#B8A25F"/>
<stop offset="0.5" stopColor="#FFF1D3"/>
<stop offset="1" stopColor="#B8A25F"/>
</linearGradient>
<linearGradient id="paint2_linear_93_737" x1="0" y1="154.5" x2="3738" y2="154.5" gradientUnits="userSpaceOnUse">
<stop stopColor="#B8A25F"/>
<stop offset="0.5" stopColor="#FFF1D3"/>
<stop offset="1" stopColor="#B8A25F"/>
</linearGradient>
<linearGradient id="paint3_linear_93_737" x1="0" y1="154.5" x2="3738" y2="154.5" gradientUnits="userSpaceOnUse">
<stop stopColor="#B8A25F"/>
<stop offset="0.5" stopColor="#FFF1D3"/>
<stop offset="1" stopColor="#B8A25F"/>
</linearGradient>
<linearGradient id="paint4_linear_93_737" x1="0" y1="154.5" x2="3738" y2="154.5" gradientUnits="userSpaceOnUse">
<stop stopColor="#B8A25F"/>
<stop offset="0.5" stopColor="#FFF1D3"/>
<stop offset="1" stopColor="#B8A25F"/>
</linearGradient>
</defs>
</svg>
