<svg width="246" height="246" viewBox="0 0 246 246" fill="none" xmlns="http://www.w3.org/2000/svg">
<path d="M6.37281 244.703L3.94251 246C1.35017 241.245 0.702084 235.302 8.15503 225.685C9.55918 222.875 3.94251 214.23 3.94251 214.23L5.99476 212.555C11.4494 217.526 14.4738 215.959 14.8518 222.065C15.0459 220.394 15.0026 219.377 14.8518 217.526C17.2394 217.272 18.4581 216.881 20.4685 215.851C25.0591 226.549 21.0086 233.033 7.50695 239.03C5.07668 240.057 6.37281 244.703 6.37281 244.703Z" fill="url(#paint0_linear_97_2152)"/>
<path d="M27.9214 223.848L26.4632 221.362C29.0665 218.986 30.2977 216.337 29.6496 211.367C20.6845 181.434 33.16 176.787 43.3133 174.842C36.7046 191.927 33.8633 202.226 30.9458 222.389L27.9214 223.848Z" fill="url(#paint1_linear_97_2152)"/>
<path d="M19.5504 204.343C20.4685 203.424 17.2281 199.318 17.2281 199.318C25.4911 202.614 25.2211 205.261 25.2211 207.801C25.2211 210.34 23.2228 215.851 15.9319 215.851C8.64106 215.851 2.64632 209.51 2.64632 201.695C2.64632 185.864 17.9302 173.599 40.3429 171.979V174.842C35.1043 175.706 28.3534 179.272 26.0311 188.458C9.93717 196.238 16.634 206.027 19.5504 204.343Z" fill="url(#paint2_linear_97_2152)"/>
<path d="M20.5225 176.031C15.5874 178.939 12.0662 179.473 8.10095 185C3.6184 183.108 1.72821 179.056 0 175.977C3.67245 170.466 8.64102 168.358 11.5574 167.818C14.5277 171.654 18.3622 174.68 20.5225 176.031Z" fill="url(#paint3_linear_97_2152)"/>
<path d="M35.8063 171.708C31.3648 171.953 25.7071 173.383 21.2786 175.76C19.2803 173.977 3.83447 162.955 3.83447 141.614C3.83447 120.272 23.6009 105.683 38.7767 105.683C53.9526 105.683 63.6198 119.515 63.6198 127.836C63.6198 136.156 56.3288 142.424 52.2243 142.856C48.1198 143.288 43.3673 141.289 42.6652 137.453C41.9631 133.617 45.5816 131.996 45.5816 131.996C45.5816 131.996 49.092 130.537 49.092 128.052C49.092 124.702 45.3115 118.65 38.7227 118.65C31.0538 118.65 17.1201 125.891 17.1201 138.263C17.1201 158.255 37.1025 168.683 37.1025 168.683L35.8063 171.708Z" fill="url(#paint4_linear_97_2152)"/>
<path d="M59.7853 142.1L59.1372 141.451C59.1372 141.451 54.3306 144.207 49.9021 144.207C45.4736 144.207 41.153 140.749 41.153 136.589C41.153 132.428 45.6356 129.781 45.6356 129.781C42.6652 122.811 33.5921 121.298 28.4075 129.889C28.4075 129.889 29.6496 139.344 36.2384 139.344C26.6253 148.043 31.5939 158.363 31.5939 158.363C31.5939 158.363 42.9893 157.444 46.9857 150.907C47.4178 154.905 50.4962 158.687 50.4962 158.687C54.1067 151.643 56.1346 147.815 59.7853 142.1Z" fill="url(#paint5_linear_97_2152)"/>
<path d="M7.29089 87.6911C7.29089 87.6911 -8.37106 101.847 8.69506 117.732C1.78222 94.1207 31.9719 99.3076 33.4841 72.5627C33.6461 68.0241 32.5119 66.5653 30.2977 64.188C29.7036 66.3492 28.2454 68.4563 25.7071 69.1587C25.8946 68.1503 25.059 67.5919 24.735 67.3757C24.4109 67.1596 21.1165 65.7008 21.1165 65.7008C21.1165 65.7008 23.7629 68.8886 23.7629 73.9134C23.7629 78.9382 19.2804 81.0994 16.202 81.0994C13.1236 81.0994 12.7996 78.2358 12.7996 78.2358C12.7996 78.2358 13.5017 79.6946 15.7699 79.6946C18.0382 79.6946 20.3605 78.2358 20.3605 75.048C20.3605 71.8603 17.3901 68.5644 12.7996 68.5644C8.209 68.5644 1.51218 73.0489 1.51218 79.5866C1.51218 86.1242 7.29089 87.6911 7.29089 87.6911Z" fill="url(#paint6_linear_97_2152)"/>
<path d="M244.703 6.37561L246 3.94424C241.246 1.35077 235.304 0.702395 225.688 8.1586C222.878 9.56337 214.235 3.94424 214.235 3.94424L212.56 5.99739C217.53 11.4544 215.963 14.4801 222.068 14.8584C220.397 15.0525 219.381 15.0092 217.53 14.8584C217.276 17.2469 216.885 18.4662 215.855 20.4775C226.552 25.0701 233.035 21.0178 239.031 7.51024C240.058 5.07891 244.703 6.37561 244.703 6.37561Z" fill="url(#paint7_linear_97_2152)"/>
<path d="M223.851 27.9337L221.366 26.4748C218.99 29.0792 216.341 30.3109 211.372 29.6626C181.443 20.6936 176.797 33.1745 174.852 43.3323C191.934 36.7207 202.232 33.8781 222.392 30.9594L223.851 27.9337Z" fill="url(#paint8_linear_97_2152)"/>
<path d="M204.349 19.559C203.43 20.4775 199.324 17.2357 199.324 17.2357C202.62 25.5023 205.267 25.2321 207.806 25.2321C210.345 25.2321 215.855 23.233 215.855 15.9389C215.855 8.64485 209.515 2.64748 201.701 2.64748C185.873 2.64748 173.61 17.9381 171.989 40.3606H174.852C175.716 35.1197 179.282 28.3659 188.466 26.0425C196.245 9.94153 206.033 16.6413 204.349 19.559Z" fill="url(#paint9_linear_97_2152)"/>
<path d="M176.041 20.5315C178.949 15.5942 179.482 12.0714 185.008 8.1045C183.117 3.61999 179.066 1.72897 175.987 0C170.476 3.67406 168.369 8.6448 167.829 11.5624C171.665 14.5341 174.69 18.3703 176.041 20.5315Z" fill="url(#paint10_linear_97_2152)"/>
<path d="M171.719 35.822C171.963 31.3786 173.393 25.7184 175.77 21.2879C173.988 19.2888 162.967 3.83615 141.628 3.83615C120.29 3.83615 105.703 23.6112 105.703 38.7937C105.703 53.9762 119.533 63.6477 127.853 63.6477C136.172 63.6477 142.438 56.3535 142.871 52.2472C143.303 48.1409 141.304 43.3863 137.469 42.6839C133.633 41.9815 132.012 45.6015 132.012 45.6015C132.012 45.6015 130.554 49.1135 128.069 49.1135C124.719 49.1135 118.669 45.3314 118.669 38.7397C118.669 31.0674 125.908 17.1276 138.279 17.1276C158.267 17.1276 168.694 37.1188 168.694 37.1188L171.719 35.822Z" fill="url(#paint11_linear_97_2152)"/>
<path d="M142.114 59.8115L141.466 59.1631C141.466 59.1631 144.221 54.3545 144.221 49.924C144.221 45.4935 140.764 41.1711 136.604 41.1711C132.444 41.1711 129.797 45.6556 129.797 45.6556C122.828 42.6839 121.316 33.6068 129.905 28.4199C129.905 28.4199 139.359 29.6626 139.359 36.2543C148.057 26.6369 158.375 31.6077 158.375 31.6077C158.375 31.6077 157.457 43.0081 150.92 47.0063C154.918 47.4386 158.699 50.5183 158.699 50.5183C151.656 54.1304 147.829 56.1592 142.114 59.8115Z" fill="url(#paint12_linear_97_2152)"/>
<path d="M87.7136 7.29408C87.7136 7.29408 101.868 -8.37473 117.75 8.69887C94.1423 1.78299 99.3285 31.9859 72.5873 33.4988C68.0494 33.6608 66.5908 32.5262 64.2138 30.3109C67.1842 28.7981 68.4816 28.2578 69.1839 25.7184C68.1756 25.906 66.8061 25.3942 64.9159 21.396C64.9159 21.396 68.9138 23.7733 73.9379 23.7733C78.962 23.7733 81.1229 19.2888 81.1229 16.2091C81.1229 13.1294 78.2597 12.8052 78.2597 12.8052C78.2597 12.8052 79.7183 13.5076 79.7183 15.7768C79.7183 18.0461 78.2597 20.3694 75.0724 20.3694C71.885 20.3694 68.5896 17.3977 68.5896 12.8052C68.5896 8.21259 73.0735 1.51284 79.6102 1.51284C86.147 1.51284 87.7136 7.29408 87.7136 7.29408Z" fill="url(#paint13_linear_97_2152)"/>
<path d="M62.2696 62.1889C59.6232 60.5139 52.1163 65.5387 46.2836 65.4847C54.8707 74.886 54.0606 79.7487 54.0606 81.5857C54.0606 83.4228 52.8724 86.6646 50.9822 86.6646C49.0919 86.6646 51.6303 83.2066 47.2557 83.2066C45.6355 83.2066 40.9369 85.3679 40.9369 91.2031C40.9369 97.6868 48.9839 100.766 52.4404 100.766C55.8968 100.766 59.4072 98.4432 59.4072 98.4432C62.3236 103.36 68.3183 101.307 73.5029 104.062C72.3148 101.523 73.3409 101.091 72.3148 99.0915C76.8513 103.36 80.4158 100.118 84.3042 105.143C83.0945 101.049 84.1962 99.6859 83.6022 97.0924C91.5951 101.685 92.1352 96.5521 101.964 102.874C97.1038 92.5539 100.776 90.2306 96.6178 84.1251C101.964 85.4759 100.992 83.5849 104.719 84.6654C101.262 83.0986 103.045 77.9657 98.616 72.6167C100.398 73.4812 101.262 73.157 103.963 73.8594C100.884 70.0233 103.369 62.9993 97.9679 59.6494C97.9679 59.6494 100.344 56.7858 100.344 52.5714C100.344 47.2765 95.5916 41.117 90.785 41.117C88.5708 41.1171 82.63 43.6025 82.63 47.2765C82.63 51.4908 86.1945 49.924 86.1945 51.4908C86.1945 53.0577 83.0081 54.4625 81.2799 54.4625C79.5517 54.4625 70.9646 53.0578 64.8619 46.412C66.158 49.5998 60.9734 58.785 62.2696 62.1889Z" fill="url(#paint14_linear_97_2152)"/>
<path d="M13.8796 13.7237L15.0138 34.7955C28.4614 39.8743 27.2193 30.9053 35.3203 35.4979C30.6217 27.8256 38.9387 30.311 34.3481 15.2365L13.8796 13.7237Z" fill="url(#paint15_linear_97_2152)"/>
<path d="M15.6619 45.0072L15.0138 36.1462C28.8935 40.1445 28.5694 31.1214 37.0485 37.1188C30.4057 27.5014 40.0728 30.9053 35.3203 15.3986L44.6094 15.9389C48.9839 38.5776 41.747 38.9018 43.5833 43.9266C39.0467 42.0896 39.4788 49.1675 15.6619 45.0072Z" fill="url(#paint16_linear_97_2152)"/>
<path d="M41.747 44.0347C32.89 48.5732 23.8709 46.8983 15.8239 45.9257C14.7978 52.8416 13.6636 61.7026 24.951 66.8354C26.0851 67.4905 25.9771 68.6184 25.9771 68.6184C28.4614 68.0241 30.1356 63.4856 30.1356 63.4856C30.1356 63.4856 36.5084 68.6184 45.4735 66.4032C45.4735 66.4032 43.2592 64.9984 43.8533 63.2154C49.0919 66.7814 56.3828 60.622 61.4595 61.2163C61.1894 57.164 64.4298 50.4102 63.8898 48.5192C63.7816 45.6312 63.423 45.2365 62.9176 43.9806C63.6524 43.7257 64.3402 44.1732 65.888 45.6556C67.6162 40.8469 67.5082 37.1728 63.0797 30.311C66.158 29.1223 68.1023 27.9877 68.6423 26.0966C64.4838 26.3668 65.1319 13.1834 45.5275 15.9389C46.3916 20.9637 48.3899 31.0674 43.9073 41.1711C43.4213 43.1702 44.2314 44.0887 45.0415 45.6556C43.6373 44.7371 42.9892 43.7105 41.747 44.0347Z" fill="url(#paint17_linear_97_2152)"/>
<defs>
<linearGradient id="paint0_linear_97_2152" x1="8.60794" y1="222.749" x2="240.783" y2="13.3771" gradientUnits="userSpaceOnUse">
<stop stopColor="#B8A25F"/>
<stop offset="0.5" stopColor="#FFF1D3"/>
<stop offset="1" stopColor="#B8A25F"/>
</linearGradient>
<linearGradient id="paint1_linear_97_2152" x1="8.60794" y1="222.749" x2="240.783" y2="13.3771" gradientUnits="userSpaceOnUse">
<stop stopColor="#B8A25F"/>
<stop offset="0.5" stopColor="#FFF1D3"/>
<stop offset="1" stopColor="#B8A25F"/>
</linearGradient>
<linearGradient id="paint2_linear_97_2152" x1="8.60794" y1="222.749" x2="240.783" y2="13.3771" gradientUnits="userSpaceOnUse">
<stop stopColor="#B8A25F"/>
<stop offset="0.5" stopColor="#FFF1D3"/>
<stop offset="1" stopColor="#B8A25F"/>
</linearGradient>
<linearGradient id="paint3_linear_97_2152" x1="8.60794" y1="222.749" x2="240.783" y2="13.3771" gradientUnits="userSpaceOnUse">
<stop stopColor="#B8A25F"/>
<stop offset="0.5" stopColor="#FFF1D3"/>
<stop offset="1" stopColor="#B8A25F"/>
</linearGradient>
<linearGradient id="paint4_linear_97_2152" x1="8.60794" y1="222.749" x2="240.783" y2="13.3771" gradientUnits="userSpaceOnUse">
<stop stopColor="#B8A25F"/>
<stop offset="0.5" stopColor="#FFF1D3"/>
<stop offset="1" stopColor="#B8A25F"/>
</linearGradient>
<linearGradient id="paint5_linear_97_2152" x1="8.60794" y1="222.749" x2="240.783" y2="13.3771" gradientUnits="userSpaceOnUse">
<stop stopColor="#B8A25F"/>
<stop offset="0.5" stopColor="#FFF1D3"/>
<stop offset="1" stopColor="#B8A25F"/>
</linearGradient>
<linearGradient id="paint6_linear_97_2152" x1="8.60794" y1="222.749" x2="240.783" y2="13.3771" gradientUnits="userSpaceOnUse">
<stop stopColor="#B8A25F"/>
<stop offset="0.5" stopColor="#FFF1D3"/>
<stop offset="1" stopColor="#B8A25F"/>
</linearGradient>
<linearGradient id="paint7_linear_97_2152" x1="8.60794" y1="222.749" x2="240.783" y2="13.3771" gradientUnits="userSpaceOnUse">
<stop stopColor="#B8A25F"/>
<stop offset="0.5" stopColor="#FFF1D3"/>
<stop offset="1" stopColor="#B8A25F"/>
</linearGradient>
<linearGradient id="paint8_linear_97_2152" x1="8.60794" y1="222.749" x2="240.783" y2="13.3771" gradientUnits="userSpaceOnUse">
<stop stopColor="#B8A25F"/>
<stop offset="0.5" stopColor="#FFF1D3"/>
<stop offset="1" stopColor="#B8A25F"/>
</linearGradient>
<linearGradient id="paint9_linear_97_2152" x1="8.60794" y1="222.749" x2="240.783" y2="13.3771" gradientUnits="userSpaceOnUse">
<stop stopColor="#B8A25F"/>
<stop offset="0.5" stopColor="#FFF1D3"/>
<stop offset="1" stopColor="#B8A25F"/>
</linearGradient>
<linearGradient id="paint10_linear_97_2152" x1="8.60794" y1="222.749" x2="240.783" y2="13.3771" gradientUnits="userSpaceOnUse">
<stop stopColor="#B8A25F"/>
<stop offset="0.5" stopColor="#FFF1D3"/>
<stop offset="1" stopColor="#B8A25F"/>
</linearGradient>
<linearGradient id="paint11_linear_97_2152" x1="8.60794" y1="222.749" x2="240.783" y2="13.3771" gradientUnits="userSpaceOnUse">
<stop stopColor="#B8A25F"/>
<stop offset="0.5" stopColor="#FFF1D3"/>
<stop offset="1" stopColor="#B8A25F"/>
</linearGradient>
<linearGradient id="paint12_linear_97_2152" x1="8.60794" y1="222.749" x2="240.783" y2="13.3771" gradientUnits="userSpaceOnUse">
<stop stopColor="#B8A25F"/>
<stop offset="0.5" stopColor="#FFF1D3"/>
<stop offset="1" stopColor="#B8A25F"/>
</linearGradient>
<linearGradient id="paint13_linear_97_2152" x1="8.60794" y1="222.749" x2="240.783" y2="13.3771" gradientUnits="userSpaceOnUse">
<stop stopColor="#B8A25F"/>
<stop offset="0.5" stopColor="#FFF1D3"/>
<stop offset="1" stopColor="#B8A25F"/>
</linearGradient>
<linearGradient id="paint14_linear_97_2152" x1="8.60794" y1="222.749" x2="240.783" y2="13.3771" gradientUnits="userSpaceOnUse">
<stop stopColor="#B8A25F"/>
<stop offset="0.5" stopColor="#FFF1D3"/>
<stop offset="1" stopColor="#B8A25F"/>
</linearGradient>
<linearGradient id="paint15_linear_97_2152" x1="8.60794" y1="222.749" x2="240.783" y2="13.3771" gradientUnits="userSpaceOnUse">
<stop stopColor="#B8A25F"/>
<stop offset="0.5" stopColor="#FFF1D3"/>
<stop offset="1" stopColor="#B8A25F"/>
</linearGradient>
<linearGradient id="paint16_linear_97_2152" x1="8.60794" y1="222.749" x2="240.783" y2="13.3771" gradientUnits="userSpaceOnUse">
<stop stopColor="#B8A25F"/>
<stop offset="0.5" stopColor="#FFF1D3"/>
<stop offset="1" stopColor="#B8A25F"/>
</linearGradient>
<linearGradient id="paint17_linear_97_2152" x1="8.60794" y1="222.749" x2="240.783" y2="13.3771" gradientUnits="userSpaceOnUse">
<stop stopColor="#B8A25F"/>
<stop offset="0.5" stopColor="#FFF1D3"/>
<stop offset="1" stopColor="#B8A25F"/>
</linearGradient>
</defs>
</svg>
